<svg version="1.2" xmlns="http://www.w3.org/2000/svg" viewBox="0 0 552 652" width="552" height="652"><style>.a{fill:#5380c1}</style><path class="a" d="m13.5 631c0.2 9.3 37 18.6 43.8 19.7 14.9 2.3 31.5 1.5 46.1-2.4 30.8-8.2 57.1-31.4 72.1-59.3 40.1-74.6-10.2-177.2 57.4-240.2 56.8-53.2 117.7-0.6 176.8 14.5 31.6 8.1 66.4 9.4 95.7-5 42.9-20.9 54.2-75.3 42-118.7-8.1-28.5-25.9-53.5-48.4-72.5-22.9-19.5-51.6-30.8-68-57.4-19.8-32.2-25.9-73-12.4-108.7-0.3 1.1-4.3-0.5-5.3-1h-410.7c0 0.5-2.6 0.9-2.6 1.4 0 0 13.5 629.5 13.5 629.6z"/></svg>